<?xml version="1.0" encoding="UTF-8"?>
<svg id="Layer_2" data-name="Layer 2" xmlns="http://www.w3.org/2000/svg" viewBox="0 0 464.16 464.18">
  <defs>
    <style>
      .cls-1 {
        fill: #5faee0;
      }

      .cls-2 {
        fill: #010201;
      }

      .cls-3 {
        fill: #f3f3f3;
      }

      .cls-4 {
        fill: #020202;
      }

      .cls-5 {
        fill: #030303;
      }

      .cls-6 {
        fill: #ffc943;
      }

      .cls-7 {
        fill: #f05353;
      }

      .cls-8 {
        fill: #f2f3f3;
      }

      .cls-9 {
        fill: #010101;
      }
    </style>
  </defs>
  <g id="Layer_1-2" data-name="Layer 1">
    <g>
      <path class="cls-9" d="M159.09,125.07c.46-2.51-.57-4.44,1.11-7.39,3.51-6.17,31.7-15.94,39.26-17.74,143.24-33.97,231.8,148.87,113.54,241.54-1.74,1.36-7.75,4.5-8.41,5.59-4.22,7.01,7.05,24.95-16.5,21v16c21.7-3.84,21.68,19.85,0,16v26.5c0,.38-1.91,3.03-2.48,3.52-4.38,3.78-13.12.96-14.42,2.08-.23.2-1,4.44-1.61,5.89-15.03,35.29-60.59,34.59-75.26-.71-.53-1.27-1.12-5-1.32-5.17-1.3-1.12-10.04,1.7-14.42-2.08-.57-.49-2.48-3.14-2.48-3.52v-26.5c-21.68,3.85-21.7-19.84,0-16v-16c-18.54,2.36-15.7-6.75-16.5-21-53.16-33.38-76.59-99.44-56.25-159.26,1.85-5.43,10.02-25.16,14.37-27.63,2.95-1.68,4.87-.66,7.39-1.11,7.19-1.5,8.03,8.75,5.01,13.99-8.17,14.37-14.03,31-14.97,47.94l-2.04,3.07c.09-.78.34-1.96.89-2,3.21-.25,27.32-.51,28.66,0,.76.29,1.13,1.21,1.44,2-4.21-3.28-1.98-12.12-.31-16.87,7.95-22.52,40.6-22.59,48.58-.06,1.68,4.76,3.93,13.61-.27,16.92.09-.78.35-1.96.9-2,3.43-.24,28.34-.69,29.65,0,.78.41,1.19,1.19,1.45,2-.78,0-1.98-.19-2-.68-.25-4.95-1.24-39.02,0-40.63l2-1.19c-4.39-4.64,4.67-7.31,9.04-7.4,17.63,1.89,23.93-1.76,18.91-10.97-6.03-1.16-12.34-1.57-18.91-1.23-4.37-.09-13.43-2.76-9.04-7.4-.78,0-1.97-.19-2-.68-.48-7.82-1.39-33.27,0-39.63l2-1.19-3.07,2.04c-16.73.97-33.29,6.59-47.45,14.74-5.22,3.25-16.05,2.6-14.48-4.78Z"/>
      <path class="cls-3" d="M159.09,125.07c6.36,10.47,15.95.82,24.03-2.47,12.97-5.27,26.82-9.66,40.97-9.53v41.5c0,8.51,21.7,4.27,27.05,5.95,6.63,2.07,6.66,13.02,0,15.1-5.35,1.68-27.05-2.56-27.05,5.95v42.5h-32c4.87-42.57-52.95-42.36-48,0h-31c-.13-14.15,4.26-27.99,9.53-40.97,3.29-8.08,12.94-17.68,2.47-24.03,2.14-.38,2.04-.89,3.56-2.42l6.44-9.58c.44-.64,1.06-1.24,1.76-1.1,8.28,1.67,12.66,1.54,9-9.05l1.24-1.84c2.07.11,5.45-2.59,7.22-4.05,1.59-1.31,4.46-4.21,4.78-5.95Z"/>
      <path class="cls-2" d="M229.81.27c5.56-1.21,9.64,1.72,10.3,7.28,1.08,9.24,1.3,41.14-.08,49.96-1.38,8.85-14.78,9.25-15.96-.92-1.08-9.31-1.3-41.09.08-49.96.46-2.96,2.67-5.71,5.67-6.36Z"/>
      <path class="cls-2" d="M5.8,224.29l51.73-.15c8.86,1.39,8.83,14.51,0,15.88-7.88,1.23-43.01,1.23-50.88,0-8.44-1.32-8.97-13.35-.85-15.73Z"/>
      <path class="cls-2" d="M405.8,224.29l51.73-.15c8.86,1.39,8.83,14.51,0,15.88-7.88,1.23-43.01,1.23-50.88,0-8.44-1.32-8.97-13.35-.85-15.73Z"/>
      <path class="cls-4" d="M35.81,112.27c2.82-.61,4.18-.09,6.68.91,7.31,2.92,34.04,18.57,40.53,23.46,9.03,6.81,3.15,17.35-5.95,14.98l-43.94-25.09c-5.16-3.76-3.65-12.88,2.68-14.26Z"/>
      <path class="cls-4" d="M77.84,312.26c8.32-1.64,13.78,8.39,5.75,14.81-11.37,9.08-30.26,15.73-42.47,24.54-8.51,3.21-15.1-7.41-8.55-13.56l45.27-25.79Z"/>
      <path class="cls-4" d="M423.83,112.28c8.87-1.77,13.63,7.32,7.78,13.81l-44.5,25.52c-9.32,2.43-14.72-9.04-6.52-14.54l43.24-24.79Z"/>
      <path class="cls-4" d="M382.82,312.25c3.54-.73,5.36.92,8.28,2.31,13.43,6.4,26.5,16.36,39.94,23.06,7.28,6.2,1.01,17.09-7.99,13.99-12.3-8.82-30.15-15.25-41.9-24.1-6.32-4.76-6.21-13.65,1.67-15.26Z"/>
      <path class="cls-4" d="M117.81,30.27c3.37-.74,6.63.03,8.73,2.85,6.61,13.5,16.67,26.51,23.06,39.94,2.03,4.26,4.01,6.32.94,10.98-3.94,5.97-10.09,4.03-13.89-1.03-4.73-6.29-20.65-33.49-23.46-40.53-1.96-4.9-1.24-10.93,4.62-12.21Z"/>
      <path class="cls-4" d="M341.81,30.27c7.02-1.53,11.95,4.07,9.81,10.83-8.82,12.33-15.25,30.12-24.1,41.9-6.78,9.03-17.36,3.16-14.98-5.95l25.09-43.94c1-1.36,2.53-2.48,4.18-2.85Z"/>
      <path class="cls-5" d="M147.09,135.07c3.79,6.06,2.94,14.11-5.5,14.09-1.59,0-5.68-.95-6.5-2.09-2.03-2.81-1.81-9.01,1.03-11.48,3.67-3.19,7.47-.71,10.97-.52Z"/>
      <path class="cls-1" d="M224.09,240.07v32c-42.44-4.8-42.42,52.81,0,48v32h-48c-.34-4.71,1.16-9.78-1.54-13.96-1.81-2.8-17.54-12.2-21.93-16.07-22.85-20.13-38.56-51.34-39.53-81.97h41.5c8.51,0,4.27-21.7,5.95-27.05,2.07-6.63,13.02-6.66,15.1,0,1.68,5.35-2.56,27.05,5.95,27.05h42.5Z"/>
      <path class="cls-6" d="M272.09,240.07c-5.01,42.49,53.01,42.51,48,0h31c-1.09,32.81-18.97,65.82-44.53,85.97-10.31,8.13-21.83,9.63-18.47,26.03h-48v-42.5c0-7.83-18.79-4.97-23.5-5.5-10.91-1.24-10.94-13.24-3.55-15.55,5.35-1.68,27.05,2.56,27.05-5.95v-42.5h32Z"/>
      <path class="cls-7" d="M351.09,224.07h-41.5c-8.03,0-4.72,20.55-5.99,26.03-1.92,8.28-14.36,8.08-15.53-2.51-.52-4.7,2.38-23.52-5.47-23.52h-42.5v-32c42.56,5.18,42.56-53.18,0-48v-31c58.19,1.75,109.21,52.86,111,111Z"/>
      <rect class="cls-7" x="192.09" y="368.07" width="80" height="16"/>
      <rect class="cls-7" x="192.09" y="400.07" width="80" height="16"/>
      <path class="cls-8" d="M254.09,432.07c-6.58,21.31-37.5,21.2-44,0h44Z"/>
    </g>
  </g>
</svg>