<?xml version="1.0" encoding="UTF-8"?>
<svg id="Layer_1" xmlns="http://www.w3.org/2000/svg" viewBox="0 0 103.87 65.09">
  <defs>
    <style>
      .cls-1 {
        fill: #baa169;
      }
    </style>
  </defs>
  <path class="cls-1" d="M52.99,50.24c-4.61,2.18-9.38,3.34-14.26,4.12-9.51,1.51-18.53.34-26.72-5-5.89-3.84-9.97-9.05-11.49-16.04C-.48,28.73-.02,24.23,1.84,19.96,5.89,10.65,13.09,4.77,22.64,1.8,32.65-1.31,42.31.05,51.56,4.8c.67.35.83.2.81-.49-.02-1.15.01-2.31-.01-3.46-.01-.58.13-.86.8-.86,3.11.03,6.22.03,9.32,0,.59,0,.76.2.76.77-.02,5.74-.02,11.47,0,17.21,0,.58-.17.78-.76.78-3.08-.02-6.15-.03-9.23,0-.56,0-.89-.31-1.25-.61-3.33-2.73-7.1-4.6-11.3-5.48-7.59-1.58-14.46-.1-19.96,5.59-3.93,4.06-5.21,9.04-3.7,14.56.94,3.45,3.26,5.95,6.26,7.73,6.33,3.73,13.11,4.88,20.22,2.75,4.9-1.47,8.6-4.43,10.44-9.4.29-.79.18-1.06-.72-1.04-1.88.03-1.87,0-2.27,1.85-.21.95.01,2.22-.72,2.78-.69.53-1.86.11-2.81.12-1.83.03-3.65-.02-5.48.03-.7.02-.94-.16-.93-.91.04-4.93.06-9.87,0-14.8-.01-1.01.32-1.24,1.24-1.24,6.86.02,13.72,0,20.57,0,13.17,0,26.34,0,39.51,0,1.51,0,1.52,0,1.52,1.5,0,4.77-.02,9.55.02,14.32,0,.89-.26,1.14-1.13,1.12-2.47-.06-4.94-.05-7.4,0-.72.01-1.02-.22-1.11-.93-.14-1.05-.38-2.08-.54-3.12-.08-.54-.31-.74-.87-.74-3.36.02-6.73.03-10.09,0-.65,0-.88.18-.88.86.02,6.57.02,13.14,0,19.7,0,.56.09.79.73.76,1.28-.06,2.56,0,3.84-.03.7-.02,1.03.13,1.01.95-.05,3.01-.05,6.02,0,9.03.01.78-.26.96-.99.96-7.92-.02-15.83-.02-23.75,0-.65,0-.89-.16-.88-.85.03-3.08.03-6.15,0-9.23,0-.67.2-.89.87-.86,1.31.05,2.63.01,3.94.05.54.02.74-.16.74-.71-.01-6.63-.01-13.26,0-19.9,0-.55-.19-.71-.72-.73-2.08-.1-2.08-.11-2.08,1.96,0,5.35-.02,10.7.02,16.05,0,.83-.15,1.17-1.09,1.15-3.08-.06-6.15-.05-9.23,0-.91.01-1.43-.14-1.23-1.19.03-.15-.02-.31-.05-.6Z"/>
  <path class="cls-1" d="M54.21,8.36c0-1.94.03-3.79-.02-5.63-.02-.69.2-.87.86-.85,1.83.04,3.65.03,5.48,0,.59-.01.84.11.83.78-.03,4.49-.03,8.97,0,13.46,0,.63-.17.83-.81.82-2.15-.04-4.29-.03-6.44,0-.48,0-.85-.15-1.21-.45-3.6-2.9-7.68-4.87-12.21-5.72-8.51-1.6-16.14.14-21.92,6.92-4.26,4.99-5.49,10.83-3.03,17.11,1.43,3.64,4.21,6.18,7.61,7.96,6.86,3.59,14.06,4.67,21.5,2.07,5.73-2.01,9.82-5.76,11.31-11.89q.47-1.95-1.48-1.95c-1.35,0-2.7.06-4.04-.03-.79-.05-.97.33-1.07.95-.18,1.07-.42,2.13-.57,3.21-.07.53-.28.69-.8.69-1.54-.03-3.08-.03-4.61,0-.52,0-.73-.12-.73-.69.02-3.94.03-7.88,0-11.82,0-.78.41-.7.91-.7,4.94,0,9.87,0,14.81,0,14.13,0,28.27,0,42.4-.02.8,0,1.09.13,1.07,1.02-.06,3.78-.04,7.56,0,11.34,0,.67-.17.89-.85.86-1.5-.05-3.01-.03-4.52,0-.5,0-.73-.1-.8-.66-.15-1.17-.42-2.33-.62-3.49-.08-.48-.27-.67-.8-.67-4.58.03-9.17.03-13.75,0-.61,0-.74.19-.74.77.02,7.85.01,15.7,0,23.55,0,.57.14.79.75.77,1.38-.04,2.76.01,4.13-.03.56-.02.7.17.69.71-.03,1.86-.05,3.72,0,5.57.02.7-.14.91-.88.91-5.86-.03-11.73-.02-17.59-.02-.87,0-1.73-.03-2.6.01-.56.02-.79-.12-.78-.74.04-1.89.04-3.78,0-5.67-.02-.7.27-.79.85-.77,1.35.03,2.69-.01,4.04.02.51.01.64-.14.64-.65-.02-7.91-.02-15.83,0-23.74,0-.56-.17-.69-.7-.68-1.67.03-3.33.04-5,0-.68-.02-.85.2-.85.86.02,5.77,0,11.54.04,17.3,0,.88-.25,1.05-1.07,1.03-1.99-.06-3.97-.04-5.96,0-.6.01-.78-.16-.74-.76.05-.73.01-1.47.01-2.19-.28-.2-.44.04-.61.14-4.63,2.76-9.73,4.15-15,5-3,.48-6.02.89-9.07.76-8.18-.36-15.49-2.93-21.45-8.7-4.47-4.33-6.96-9.62-6.89-15.91.07-5.41,2.11-10.17,5.5-14.32C13.2,7.12,20.71,3.12,29.74,2.24c8.05-.79,15.65.91,22.59,5.2.57.35,1.13.68,1.88.93Z"/>
</svg>